<?xml version="1.0" encoding="UTF-8" standalone="no"?>
<svg width="439px" height="257px" viewBox="0 0 439 257" version="1.1" xmlns="http://www.w3.org/2000/svg" xmlns:xlink="http://www.w3.org/1999/xlink">
    <!-- Generator: Sketch 3.8.3 (29802) - http://www.bohemiancoding.com/sketch -->
    <title>Lightweight-Illustration</title>
    <desc>Created with Sketch.</desc>
    <defs>
        <linearGradient x1="0%" y1="107.176339%" x2="100%" y2="107.17634%" id="linearGradient-1">
            <stop stop-color="#00BFB3" offset="0%"></stop>
            <stop stop-color="#31C8FA" offset="100%"></stop>
        </linearGradient>
        <linearGradient x1="136.38916%" y1="0%" x2="136.38916%" y2="82.4819712%" id="linearGradient-2">
            <stop stop-color="#00BFB3" offset="0%"></stop>
            <stop stop-color="#31C8FA" offset="100%"></stop>
        </linearGradient>
        <linearGradient x1="0%" y1="86.1328125%" x2="100%" y2="86.1328125%" id="linearGradient-3">
            <stop stop-color="#00BFB3" offset="0%"></stop>
            <stop stop-color="#31C8FA" offset="100%"></stop>
        </linearGradient>
        <linearGradient x1="136.38916%" y1="188.703125%" x2="136.38916%" y2="5.55111512e-15%" id="linearGradient-4">
            <stop stop-color="#00BFB3" offset="0%"></stop>
            <stop stop-color="#31C8FA" offset="100%"></stop>
        </linearGradient>
        <path d="M24.0773,0.252071188 C10.8121558,0.252071188 0.0586826901,10.7122678 0.0586826901,23.6156353 L0.0586826901,23.6156353 C0.0586826901,36.5190029 10.8121558,46.9791994 24.0773,46.9791994 L24.0773,46.9791994 C37.3424442,46.9791994 48.0959173,36.5190029 48.0959173,23.6156353 L48.0959173,23.6156353 C48.0959173,10.7122678 37.3424442,0.252071188 24.0773,0.252071188" id="path-5"></path>
        <path d="M24.0773,0.252071188 C10.8121558,0.252071188 0.0586826901,10.7122678 0.0586826901,23.6156353 L0.0586826901,23.6156353 C0.0586826901,36.5190029 10.8121558,46.9791994 24.0773,46.9791994 L24.0773,46.9791994 C37.3424442,46.9791994 48.0959173,36.5190029 48.0959173,23.6156353 L48.0959173,23.6156353 C48.0959173,10.7122678 37.3424442,0.252071188 24.0773,0.252071188" id="path-7"></path>
        <path d="M24.0773,0.252071188 C10.8121558,0.252071188 0.0586826901,10.7122678 0.0586826901,23.6156353 L0.0586826901,23.6156353 C0.0586826901,36.5190029 10.8121558,46.9791994 24.0773,46.9791994 L24.0773,46.9791994 C37.3424442,46.9791994 48.0959173,36.5190029 48.0959173,23.6156353 L48.0959173,23.6156353 C48.0959173,10.7122678 37.3424442,0.252071188 24.0773,0.252071188" id="path-9"></path>
        <path d="M24.0773,0.252071188 C10.8121558,0.252071188 0.0586826901,10.7122678 0.0586826901,23.6156353 L0.0586826901,23.6156353 C0.0586826901,36.5190029 10.8121558,46.9791994 24.0773,46.9791994 L24.0773,46.9791994 C37.3424442,46.9791994 48.0959173,36.5190029 48.0959173,23.6156353 L48.0959173,23.6156353 C48.0959173,10.7122678 37.3424442,0.252071188 24.0773,0.252071188" id="path-11"></path>
        <polygon id="path-13" points="26.8169248 0.121684492 0.000132090499 0.121684492 0.000132090499 23.9755283 26.8169248 23.9755283"></polygon>
        <polygon id="path-15" points="5.96720019e-21 0.0443764706 5.96720019e-21 11.0788578 28.4307955 11.0788578 28.4307955 0.0443764706 0 0.0443764706"></polygon>
        <linearGradient x1="100%" y1="50%" x2="3.061617e-15%" y2="50%" id="linearGradient-17">
            <stop stop-color="#00BFB3" offset="0%"></stop>
            <stop stop-color="#31C8FA" offset="100%"></stop>
        </linearGradient>
        <linearGradient x1="50%" y1="559.146213%" x2="50%" y2="-282.69458%" id="linearGradient-18">
            <stop stop-color="#00BFB3" offset="0%"></stop>
            <stop stop-color="#31C8FA" offset="100%"></stop>
        </linearGradient>
        <polygon id="path-19" points="26.8169248 0.121684492 0.000132090499 0.121684492 0.000132090499 23.9755283 26.8169248 23.9755283"></polygon>
        <polygon id="path-21" points="5.96720019e-21 0.0443764706 5.96720019e-21 11.0788578 28.4307955 11.0788578 28.4307955 0.0443764706 0 0.0443764706"></polygon>
        <polygon id="path-23" points="26.8169248 0.121684492 0.000132090499 0.121684492 0.000132090499 23.9755283 26.8169248 23.9755283"></polygon>
        <polygon id="path-25" points="5.96720019e-21 0.0443764706 5.96720019e-21 11.0788578 28.4307955 11.0788578 28.4307955 0.0443764706 0 0.0443764706"></polygon>
    </defs>
    <g id="Page-1" stroke="none" stroke-width="1" fill="none" fill-rule="evenodd">
        <g id="Beats-Product-Page" transform="translate(-124.000000, -1175.000000)">
            <g id="Lightweight-Illustration" transform="translate(124.000000, 1175.000000)">
                <path d="M388,132 L309.965379,132 L294.986152,132 C289.4708,132 285,127.523 285,122 L285,97" id="Page-1-Copy-20" stroke="url(#linearGradient-1)" stroke-width="2" transform="translate(336.500000, 114.500000) scale(-1, 1) translate(-336.500000, -114.500000) "></path>
                <path d="M222,182 L222,101" id="Page-1-Copy-24" stroke="url(#linearGradient-2)" stroke-width="2" transform="translate(222.000000, 141.500000) scale(-1, 1) translate(-222.000000, -141.500000) "></path>
                <path d="M159.296672,132 L76.037287,132 L61.0149148,132 C55.4836774,132 51,127.523 51,122 L51,97" id="Page-1-Copy-23" stroke="url(#linearGradient-3)" stroke-width="2"></path>
                <path d="M285,157 L285,142 C285,136.477 280.523,132 275,132 L237,132 L222,132" id="Page-1-Copy-21" stroke="url(#linearGradient-4)" stroke-width="2" transform="translate(253.500000, 144.500000) scale(-1, 1) translate(-253.500000, -144.500000) "></path>
                <path d="M222,167 L222,142 C222,136.477 217.523,132 212,132 L174,132 L159,132" id="Page-1-Copy-22" stroke="url(#linearGradient-4)" stroke-width="2"></path>
                <ellipse id="Oval-56-Copy-132" fill="#FFFFFF" transform="translate(222.000000, 212.000000) scale(-1, 1) translate(-222.000000, -212.000000) " cx="222" cy="212" rx="45" ry="45"></ellipse>
                <g id="Group-27" transform="translate(197.000000, 188.000000)">
                    <g id="Page-1-Copy">
                        <g id="Group-13">
                            <g id="Group-3">
                                <mask id="mask-6" fill="white">
                                    <use xlink:href="#path-5"></use>
                                </mask>
                                <g id="Clip-2"></g>
                                <path d="M34.3617271,13.3740941 L1.55420845,13.3740941 C0.728236605,13.3740941 0.0585788269,12.7226997 0.0585788269,11.9192543 L0.0585788269,1.70683514 C0.0585788269,0.903389799 0.728236605,0.251995416 1.55420845,0.251995416 L44.3094817,0.251995416 C45.1354535,0.251995416 45.8048516,0.903389799 45.8048516,1.70683514 L45.8048516,2.24305471 C45.8048516,8.39051028 40.6815412,13.3740941 34.3617271,13.3740941" id="Fill-1" fill="#F0BF1A" mask="url(#mask-6)"></path>
                            </g>
                            <g id="Group-6">
                                <mask id="mask-8" fill="white">
                                    <use xlink:href="#path-7"></use>
                                </mask>
                                <g id="Clip-5"></g>
                                <path d="M45.9146869,46.9791994 L0.194379919,46.9791994 C0.187369156,46.9791994 0.181397023,46.9736428 0.181397023,46.9665706 L0.181397023,33.8697296 C0.181397023,33.8629101 0.187369156,33.8571008 0.194379919,33.8571008 L34.491556,33.8571008 C40.8074753,33.8571008 45.9276698,38.8376537 45.9276698,44.9813206 L45.9276698,46.9665706 C45.9276698,46.9736428 45.9219574,46.9791994 45.9146869,46.9791994" id="Fill-4" fill="#3EBEB0" mask="url(#mask-8)"></path>
                            </g>
                            <g id="Group-9">
                                <mask id="mask-10" fill="white">
                                    <use xlink:href="#path-9"></use>
                                </mask>
                                <g id="Clip-8"></g>
                                <path d="M31.6418623,30.1766341 L-2.33697322,30.1766341 L-2.33697322,17.0545355 L31.6418623,17.0545355 C35.3715887,17.0545355 38.3934875,19.9990705 38.3867364,23.6273296 L38.3867364,23.6273296 C38.380245,27.2462434 35.362241,30.1766341 31.6418623,30.1766341" id="Fill-7" fill="#06A6DE" mask="url(#mask-10)"></path>
                            </g>
                            <g id="Group-12">
                                <mask id="mask-12" fill="white">
                                    <use xlink:href="#path-11"></use>
                                </mask>
                                <g id="Clip-11"></g>
                                <path d="M21.0622561,17.0546365 L-1.12032006,17.0546365 L-1.12032006,30.1767352 L21.1167843,30.1767352 C21.6070184,28.1990624 21.9077023,26.010741 21.9077023,23.5978792 C21.9077023,21.1865329 21.5859861,19.0118506 21.0622561,17.0546365" id="Fill-10" fill="#231F1F" mask="url(#mask-12)"></path>
                            </g>
                        </g>
                        <g id="Group-18" transform="translate(2.336921, 3.283492)">
                            <path d="M9.67106312,0.123055193 C5.57132421,2.44650496 2.24147104,5.91286266 0.149666826,10.0780991 L17.8848221,10.0780991 C16.0352788,6.12679482 13.1933228,2.70994208 9.67106312,0.123055193" id="Fill-14" fill="#D8A228"></path>
                            <path d="M10.3701142,40.9025158 C13.8344702,38.1797428 16.5852862,34.6330658 18.2964319,30.5612826 L0.149459099,30.5612826 C2.35966732,34.9616677 5.94839944,38.5863907 10.3701142,40.9025158" id="Fill-16" fill="#019B8F"></path>
                        </g>
                    </g>
                </g>
                <rect id="Rectangle-1768-Copy-3" fill="#F5F5F5" x="338" y="1" width="100" height="100" rx="5"></rect>
                <ellipse id="Oval-56-Copy-132" fill="#FFFFFF" transform="translate(388.000000, 51.000000) scale(-1, 1) translate(-388.000000, -51.000000) " cx="388" cy="51" rx="35" ry="35"></ellipse>
                <g id="Page-1" transform="translate(375.000000, 31.000000)">
                    <g id="Group-3" transform="translate(0.000000, 0.097567)">
                        <mask id="mask-14" fill="white">
                            <use xlink:href="#path-13"></use>
                        </mask>
                        <g id="Clip-2"></g>
                        <path d="M14.8409398,23.9755283 L0.000132090499,23.9755283 L0.000132090499,0.121640642 L14.8409398,0.121640642 C21.4549312,0.121640642 26.8169248,5.46150695 26.8169248,12.0484749 L26.8169248,12.0484749 C26.8169248,18.635662 21.4549312,23.9755283 14.8409398,23.9755283" id="Fill-1" fill="#06A6DE" mask="url(#mask-14)"></path>
                    </g>
                    <path d="M19.3290227,40.8783155 L0,40.8783155 L0,17.0244278 L19.3290227,17.0244278 C25.9432342,17.0244278 31.3050077,22.3642941 31.3050077,28.951262 L31.3050077,28.951262 C31.3050077,35.5384492 25.9432342,40.8783155 19.3290227,40.8783155" id="Fill-4" fill="#3EBEB0"></path>
                    <g id="Group-8" transform="translate(0.000000, 16.979920)">
                        <mask id="mask-16" fill="white">
                            <use xlink:href="#path-15"></use>
                        </mask>
                        <g id="Clip-7"></g>
                        <path d="M28.41544,4.20467059 C26.2194354,1.65806631 22.9640651,0.0443764706 19.3289346,0.0443764706 L-8.80603329e-05,0.0443764706 L-8.80603329e-05,11.0788578 L17.9219507,11.0788578 C24.2928955,11.0788578 28.7260728,4.56490053 28.41544,4.20467059" id="Fill-6" fill="#017169" opacity="0.496326959" mask="url(#mask-16)"></path>
                    </g>
                    <path d="M14.8418204,24.073139 C19.1299183,24.0727005 22.880628,21.8207701 24.9958371,18.4467112 C24.7098612,18.2932353 24.4159598,18.1526952 24.1165547,18.0222406 C24.0516102,17.9941765 23.9873262,17.9656738 23.9219414,17.9384866 C23.6344244,17.8192139 23.3403029,17.712877 23.0417784,17.6159679 C23.0105169,17.6056631 22.9812369,17.5922888 22.9499755,17.5824225 C22.8995609,17.5664171 22.8480456,17.553262 22.7971908,17.5379144 C22.531909,17.458107 22.2611235,17.3914545 21.9883566,17.3296257 C21.9460877,17.3201979 21.9053598,17.3066043 21.8626505,17.297615 C21.8080531,17.2857754 21.7543363,17.2717433 21.6992986,17.2607807 C21.4291735,17.2068449 21.1526641,17.1706684 20.8761547,17.1351497 C20.8026243,17.1255027 20.7308551,17.1099358 20.6566643,17.1016043 C20.5809324,17.0932727 20.5043199,17.0869144 20.4277074,17.0798984 C20.116194,17.051615 19.800938,17.0362674 19.4830402,17.0321016 C19.4310846,17.0314439 19.3808902,17.0244278 19.3289346,17.0244278 L0.000132090499,17.0244278 L0.000132090499,24.073139 L14.8418204,24.073139 Z" id="Fill-9" fill="#231F1F"></path>
                </g>
                <path d="M320.8696,128.3684 C320.7695,128.2039 320.6638,128.0443 320.5511,127.8896 C320.5322,127.8595 320.5119,127.8294 320.4937,127.8 L320.4937,127.8133 C319.2169,126.1081 317.1876,125 314.8937,125 C312.6005,125 310.5705,126.1081 309.2937,127.8133 L309.2937,127.8 C309.2762,127.8294 309.2552,127.8595 309.237,127.8896 C309.1243,128.0443 309.0179,128.2039 308.9185,128.3684 C307.6011,130.222 305.3156,131.9965 303,132 C305.3142,132.0035 307.5983,133.7759 308.9157,135.6281 C309.0172,135.7954 309.125,135.9578 309.2398,136.1153 C309.2573,136.1433 309.2769,136.172 309.2937,136.2 L309.2937,136.1874 C310.5705,137.8919 312.6005,139 314.8937,139 C317.1876,139 319.2169,137.8919 320.4937,136.1874 L320.4937,136.2 C320.5112,136.172 320.5308,136.1433 320.5483,136.1153 C320.6631,135.9578 320.7709,135.7954 320.8724,135.6281 C322.1898,133.7759 324.4739,132.0035 326.7874,132 C324.4725,131.9965 322.1863,130.222 320.8696,128.3684" id="Fill-1" fill="url(#linearGradient-17)"></path>
                <path d="M88.8696,128.3684 C88.7695,128.2039 88.6638,128.0443 88.5511,127.8896 C88.5322,127.8595 88.5119,127.8294 88.4937,127.8 L88.4937,127.8133 C87.2169,126.1081 85.1876,125 82.8937,125 C80.6005,125 78.5705,126.1081 77.2937,127.8133 L77.2937,127.8 C77.2762,127.8294 77.2552,127.8595 77.237,127.8896 C77.1243,128.0443 77.0179,128.2039 76.9185,128.3684 C75.6011,130.222 73.3156,131.9965 71,132 C73.3142,132.0035 75.5983,133.7759 76.9157,135.6281 C77.0172,135.7954 77.125,135.9578 77.2398,136.1153 C77.2573,136.1433 77.2769,136.172 77.2937,136.2 L77.2937,136.1874 C78.5705,137.8919 80.6005,139 82.8937,139 C85.1876,139 87.2169,137.8919 88.4937,136.1874 L88.4937,136.2 C88.5112,136.172 88.5308,136.1433 88.5483,136.1153 C88.6631,135.9578 88.7709,135.7954 88.8724,135.6281 C90.1898,133.7759 92.4739,132.0035 94.7874,132 C92.4725,131.9965 90.1863,130.222 88.8696,128.3684" id="Fill-1-Copy-2" fill="url(#linearGradient-17)" transform="translate(82.893700, 132.000000) scale(-1, 1) translate(-82.893700, -132.000000) "></path>
                <rect id="Rectangle-1768-Copy-4" fill="#F5F5F5" x="172" y="1" width="100" height="100" rx="5"></rect>
                <g id="Group-17" transform="translate(337.000000, 0.000000)" fill="url(#linearGradient-18)">
                    <path d="M1,46.1904 C0.447,46.1904 0,45.7424 0,45.1904 L0,35.4054 C0,34.8534 0.447,34.4054 1,34.4054 C1.553,34.4054 2,34.8534 2,35.4054 L2,45.1904 C2,45.7424 1.553,46.1904 1,46.1904" id="Fill-1"></path>
                    <path d="M1,26.6211 C0.447,26.6211 0,26.1731 0,25.6211 L0,15.8361 C0,15.2841 0.447,14.8361 1,14.8361 C1.553,14.8361 2,15.2841 2,15.8361 L2,25.6211 C2,26.1731 1.553,26.6211 1,26.6211" id="Fill-3"></path>
                    <path d="M1,7.0225 C0.447,7.0225 0,6.6045 0,6.0515 L0,5.9935 C0,2.6885 2.688,0.0005 5.993,0.0005 L7.93,0.0005 C8.482,0.0005 8.93,0.4475 8.93,1.0005 C8.93,1.5525 8.482,2.0005 7.93,2.0005 L5.993,2.0005 C3.791,2.0005 2,3.7915 2,5.9935 C2,6.5455 1.553,7.0225 1,7.0225" id="Fill-5"></path>
                    <path d="M47.0684,2 L37.2844,2 C36.7314,2 36.2844,1.552 36.2844,1 C36.2844,0.448 36.7314,0 37.2844,0 L47.0684,0 C47.6214,0 48.0684,0.448 48.0684,1 C48.0684,1.552 47.6214,2 47.0684,2" id="Fill-7"></path>
                    <path d="M27.499,2 L17.715,2 C17.162,2 16.715,1.552 16.715,1 C16.715,0.448 17.162,0 17.715,0 L27.499,0 C28.052,0 28.499,0.448 28.499,1 C28.499,1.552 28.052,2 27.499,2" id="Fill-9"></path>
                    <path d="M100,45.1904 L100,35.4054 C100,34.8534 100.447,34.4054 101,34.4054 C101.553,34.4054 102,34.8534 102,35.4054 L102,45.1904 C102,45.7424 101.553,46.1904 101,46.1904 C100.447,46.1904 100,45.7424 100,45.1904" id="Fill-11"></path>
                    <path d="M100,25.6211 L100,15.8361 C100,15.2841 100.447,14.8361 101,14.8361 C101.553,14.8361 102,15.2841 102,15.8361 L102,25.6211 C102,26.1731 101.553,26.6211 101,26.6211 C100.447,26.6211 100,26.1731 100,25.6211" id="Fill-13"></path>
                    <path d="M100,5.9932 C100,3.7912 98.209,2.0002 96.007,2.0002 L94.07,2.0002 C93.518,2.0002 93.07,1.5522 93.07,1.0002 C93.07,0.4482 93.518,0.0002 94.07,0.0002 L96.007,0.0002 C99.312,0.0002 102,2.6882 102,5.9932 L102,6.0522 C102,6.6042 101.553,7.0222 101,7.0222 C100.447,7.0222 100,6.5452 100,5.9932" id="Fill-15"></path>
                    <path d="M53.9316,1 C53.9316,0.448 54.3786,0 54.9316,0 L64.7156,0 C65.2686,0 65.7156,0.448 65.7156,1 C65.7156,1.552 65.2686,2 64.7156,2 L54.9316,2 C54.3786,2 53.9316,1.552 53.9316,1" id="Fill-17"></path>
                    <path d="M73.501,1 C73.501,0.448 73.948,0 74.501,0 L84.285,0 C84.838,0 85.285,0.448 85.285,1 C85.285,1.552 84.838,2 84.285,2 L74.501,2 C73.948,2 73.501,1.552 73.501,1" id="Fill-19"></path>
                    <path d="M2,56.8096 L2,66.5946 C2,67.1466 1.553,67.5946 1,67.5946 C0.447,67.5946 0,67.1466 0,66.5946 L0,56.8096 C0,56.2576 0.447,55.8096 1,55.8096 C1.553,55.8096 2,56.2576 2,56.8096" id="Fill-21"></path>
                    <path d="M2,76.3789 L2,86.1639 C2,86.7159 1.553,87.1639 1,87.1639 C0.447,87.1639 0,86.7159 0,86.1639 L0,76.3789 C0,75.8269 0.447,75.3789 1,75.3789 C1.553,75.3789 2,75.8269 2,76.3789" id="Fill-23"></path>
                    <path d="M2,96.0068 C2,98.2088 3.791,99.9998 5.993,99.9998 L7.93,99.9998 C8.482,99.9998 8.93,100.4478 8.93,100.9998 C8.93,101.5518 8.482,101.9998 7.93,101.9998 L5.993,101.9998 C2.688,101.9998 0,99.3118 0,96.0068 L0,95.9478 C0,95.3958 0.447,94.9778 1,94.9778 C1.553,94.9778 2,95.4548 2,96.0068" id="Fill-25"></path>
                    <path d="M48.0684,101 C48.0684,101.552 47.6214,102 47.0684,102 L37.2844,102 C36.7314,102 36.2844,101.552 36.2844,101 C36.2844,100.448 36.7314,100 37.2844,100 L47.0684,100 C47.6214,100 48.0684,100.448 48.0684,101" id="Fill-27"></path>
                    <path d="M28.499,101 C28.499,101.552 28.052,102 27.499,102 L17.715,102 C17.162,102 16.715,101.552 16.715,101 C16.715,100.448 17.162,100 17.715,100 L27.499,100 C28.052,100 28.499,100.448 28.499,101" id="Fill-29"></path>
                    <path d="M101,55.8096 C101.553,55.8096 102,56.2576 102,56.8096 L102,66.5946 C102,67.1466 101.553,67.5946 101,67.5946 C100.447,67.5946 100,67.1466 100,66.5946 L100,56.8096 C100,56.2576 100.447,55.8096 101,55.8096" id="Fill-31"></path>
                    <path d="M101,75.3789 C101.553,75.3789 102,75.8269 102,76.3789 L102,86.1639 C102,86.7159 101.553,87.1639 101,87.1639 C100.447,87.1639 100,86.7159 100,86.1639 L100,76.3789 C100,75.8269 100.447,75.3789 101,75.3789" id="Fill-33"></path>
                    <path d="M101,94.9775 C101.553,94.9775 102,95.3955 102,95.9485 L102,96.0065 C102,99.3115 99.312,101.9995 96.007,101.9995 L94.07,101.9995 C93.518,101.9995 93.07,101.5525 93.07,100.9995 C93.07,100.4475 93.518,99.9995 94.07,99.9995 L96.007,99.9995 C98.209,99.9995 100,98.2085 100,96.0065 C100,95.4545 100.447,94.9775 101,94.9775" id="Fill-35"></path>
                    <path d="M54.9316,100 L64.7156,100 C65.2686,100 65.7156,100.448 65.7156,101 C65.7156,101.552 65.2686,102 64.7156,102 L54.9316,102 C54.3786,102 53.9316,101.552 53.9316,101 C53.9316,100.448 54.3786,100 54.9316,100" id="Fill-37"></path>
                    <path d="M74.501,100 L84.285,100 C84.838,100 85.285,100.448 85.285,101 C85.285,101.552 84.838,102 84.285,102 L74.501,102 C73.948,102 73.501,101.552 73.501,101 C73.501,100.448 73.948,100 74.501,100" id="Fill-39"></path>
                </g>
                <g id="Group-17-Copy" transform="translate(171.000000, 0.000000)" fill="url(#linearGradient-18)">
                    <path d="M1,46.1904 C0.447,46.1904 0,45.7424 0,45.1904 L0,35.4054 C0,34.8534 0.447,34.4054 1,34.4054 C1.553,34.4054 2,34.8534 2,35.4054 L2,45.1904 C2,45.7424 1.553,46.1904 1,46.1904" id="Fill-1"></path>
                    <path d="M1,26.6211 C0.447,26.6211 0,26.1731 0,25.6211 L0,15.8361 C0,15.2841 0.447,14.8361 1,14.8361 C1.553,14.8361 2,15.2841 2,15.8361 L2,25.6211 C2,26.1731 1.553,26.6211 1,26.6211" id="Fill-3"></path>
                    <path d="M1,7.0225 C0.447,7.0225 0,6.6045 0,6.0515 L0,5.9935 C0,2.6885 2.688,0.0005 5.993,0.0005 L7.93,0.0005 C8.482,0.0005 8.93,0.4475 8.93,1.0005 C8.93,1.5525 8.482,2.0005 7.93,2.0005 L5.993,2.0005 C3.791,2.0005 2,3.7915 2,5.9935 C2,6.5455 1.553,7.0225 1,7.0225" id="Fill-5"></path>
                    <path d="M47.0684,2 L37.2844,2 C36.7314,2 36.2844,1.552 36.2844,1 C36.2844,0.448 36.7314,0 37.2844,0 L47.0684,0 C47.6214,0 48.0684,0.448 48.0684,1 C48.0684,1.552 47.6214,2 47.0684,2" id="Fill-7"></path>
                    <path d="M27.499,2 L17.715,2 C17.162,2 16.715,1.552 16.715,1 C16.715,0.448 17.162,0 17.715,0 L27.499,0 C28.052,0 28.499,0.448 28.499,1 C28.499,1.552 28.052,2 27.499,2" id="Fill-9"></path>
                    <path d="M100,45.1904 L100,35.4054 C100,34.8534 100.447,34.4054 101,34.4054 C101.553,34.4054 102,34.8534 102,35.4054 L102,45.1904 C102,45.7424 101.553,46.1904 101,46.1904 C100.447,46.1904 100,45.7424 100,45.1904" id="Fill-11"></path>
                    <path d="M100,25.6211 L100,15.8361 C100,15.2841 100.447,14.8361 101,14.8361 C101.553,14.8361 102,15.2841 102,15.8361 L102,25.6211 C102,26.1731 101.553,26.6211 101,26.6211 C100.447,26.6211 100,26.1731 100,25.6211" id="Fill-13"></path>
                    <path d="M100,5.9932 C100,3.7912 98.209,2.0002 96.007,2.0002 L94.07,2.0002 C93.518,2.0002 93.07,1.5522 93.07,1.0002 C93.07,0.4482 93.518,0.0002 94.07,0.0002 L96.007,0.0002 C99.312,0.0002 102,2.6882 102,5.9932 L102,6.0522 C102,6.6042 101.553,7.0222 101,7.0222 C100.447,7.0222 100,6.5452 100,5.9932" id="Fill-15"></path>
                    <path d="M53.9316,1 C53.9316,0.448 54.3786,0 54.9316,0 L64.7156,0 C65.2686,0 65.7156,0.448 65.7156,1 C65.7156,1.552 65.2686,2 64.7156,2 L54.9316,2 C54.3786,2 53.9316,1.552 53.9316,1" id="Fill-17"></path>
                    <path d="M73.501,1 C73.501,0.448 73.948,0 74.501,0 L84.285,0 C84.838,0 85.285,0.448 85.285,1 C85.285,1.552 84.838,2 84.285,2 L74.501,2 C73.948,2 73.501,1.552 73.501,1" id="Fill-19"></path>
                    <path d="M2,56.8096 L2,66.5946 C2,67.1466 1.553,67.5946 1,67.5946 C0.447,67.5946 0,67.1466 0,66.5946 L0,56.8096 C0,56.2576 0.447,55.8096 1,55.8096 C1.553,55.8096 2,56.2576 2,56.8096" id="Fill-21"></path>
                    <path d="M2,76.3789 L2,86.1639 C2,86.7159 1.553,87.1639 1,87.1639 C0.447,87.1639 0,86.7159 0,86.1639 L0,76.3789 C0,75.8269 0.447,75.3789 1,75.3789 C1.553,75.3789 2,75.8269 2,76.3789" id="Fill-23"></path>
                    <path d="M2,96.0068 C2,98.2088 3.791,99.9998 5.993,99.9998 L7.93,99.9998 C8.482,99.9998 8.93,100.4478 8.93,100.9998 C8.93,101.5518 8.482,101.9998 7.93,101.9998 L5.993,101.9998 C2.688,101.9998 0,99.3118 0,96.0068 L0,95.9478 C0,95.3958 0.447,94.9778 1,94.9778 C1.553,94.9778 2,95.4548 2,96.0068" id="Fill-25"></path>
                    <path d="M48.0684,101 C48.0684,101.552 47.6214,102 47.0684,102 L37.2844,102 C36.7314,102 36.2844,101.552 36.2844,101 C36.2844,100.448 36.7314,100 37.2844,100 L47.0684,100 C47.6214,100 48.0684,100.448 48.0684,101" id="Fill-27"></path>
                    <path d="M28.499,101 C28.499,101.552 28.052,102 27.499,102 L17.715,102 C17.162,102 16.715,101.552 16.715,101 C16.715,100.448 17.162,100 17.715,100 L27.499,100 C28.052,100 28.499,100.448 28.499,101" id="Fill-29"></path>
                    <path d="M101,55.8096 C101.553,55.8096 102,56.2576 102,56.8096 L102,66.5946 C102,67.1466 101.553,67.5946 101,67.5946 C100.447,67.5946 100,67.1466 100,66.5946 L100,56.8096 C100,56.2576 100.447,55.8096 101,55.8096" id="Fill-31"></path>
                    <path d="M101,75.3789 C101.553,75.3789 102,75.8269 102,76.3789 L102,86.1639 C102,86.7159 101.553,87.1639 101,87.1639 C100.447,87.1639 100,86.7159 100,86.1639 L100,76.3789 C100,75.8269 100.447,75.3789 101,75.3789" id="Fill-33"></path>
                    <path d="M101,94.9775 C101.553,94.9775 102,95.3955 102,95.9485 L102,96.0065 C102,99.3115 99.312,101.9995 96.007,101.9995 L94.07,101.9995 C93.518,101.9995 93.07,101.5525 93.07,100.9995 C93.07,100.4475 93.518,99.9995 94.07,99.9995 L96.007,99.9995 C98.209,99.9995 100,98.2085 100,96.0065 C100,95.4545 100.447,94.9775 101,94.9775" id="Fill-35"></path>
                    <path d="M54.9316,100 L64.7156,100 C65.2686,100 65.7156,100.448 65.7156,101 C65.7156,101.552 65.2686,102 64.7156,102 L54.9316,102 C54.3786,102 53.9316,101.552 53.9316,101 C53.9316,100.448 54.3786,100 54.9316,100" id="Fill-37"></path>
                    <path d="M74.501,100 L84.285,100 C84.838,100 85.285,100.448 85.285,101 C85.285,101.552 84.838,102 84.285,102 L74.501,102 C73.948,102 73.501,101.552 73.501,101 C73.501,100.448 73.948,100 74.501,100" id="Fill-39"></path>
                </g>
                <ellipse id="Oval-56-Copy-133" fill="#FFFFFF" transform="translate(222.000000, 51.000000) scale(-1, 1) translate(-222.000000, -51.000000) " cx="222" cy="51" rx="35" ry="35"></ellipse>
                <g id="Page-1-Copy-2" transform="translate(209.000000, 31.000000)">
                    <g id="Group-3" transform="translate(0.000000, 0.097567)">
                        <mask id="mask-20" fill="white">
                            <use xlink:href="#path-19"></use>
                        </mask>
                        <g id="Clip-2"></g>
                        <path d="M14.8409398,23.9755283 L0.000132090499,23.9755283 L0.000132090499,0.121640642 L14.8409398,0.121640642 C21.4549312,0.121640642 26.8169248,5.46150695 26.8169248,12.0484749 L26.8169248,12.0484749 C26.8169248,18.635662 21.4549312,23.9755283 14.8409398,23.9755283" id="Fill-1" fill="#06A6DE" mask="url(#mask-20)"></path>
                    </g>
                    <path d="M19.3290227,40.8783155 L0,40.8783155 L0,17.0244278 L19.3290227,17.0244278 C25.9432342,17.0244278 31.3050077,22.3642941 31.3050077,28.951262 L31.3050077,28.951262 C31.3050077,35.5384492 25.9432342,40.8783155 19.3290227,40.8783155" id="Fill-4" fill="#3EBEB0"></path>
                    <g id="Group-8" transform="translate(0.000000, 16.979920)">
                        <mask id="mask-22" fill="white">
                            <use xlink:href="#path-21"></use>
                        </mask>
                        <g id="Clip-7"></g>
                        <path d="M28.41544,4.20467059 C26.2194354,1.65806631 22.9640651,0.0443764706 19.3289346,0.0443764706 L-8.80603329e-05,0.0443764706 L-8.80603329e-05,11.0788578 L17.9219507,11.0788578 C24.2928955,11.0788578 28.7260728,4.56490053 28.41544,4.20467059" id="Fill-6" fill="#017169" opacity="0.496326959" mask="url(#mask-22)"></path>
                    </g>
                    <path d="M14.8418204,24.073139 C19.1299183,24.0727005 22.880628,21.8207701 24.9958371,18.4467112 C24.7098612,18.2932353 24.4159598,18.1526952 24.1165547,18.0222406 C24.0516102,17.9941765 23.9873262,17.9656738 23.9219414,17.9384866 C23.6344244,17.8192139 23.3403029,17.712877 23.0417784,17.6159679 C23.0105169,17.6056631 22.9812369,17.5922888 22.9499755,17.5824225 C22.8995609,17.5664171 22.8480456,17.553262 22.7971908,17.5379144 C22.531909,17.458107 22.2611235,17.3914545 21.9883566,17.3296257 C21.9460877,17.3201979 21.9053598,17.3066043 21.8626505,17.297615 C21.8080531,17.2857754 21.7543363,17.2717433 21.6992986,17.2607807 C21.4291735,17.2068449 21.1526641,17.1706684 20.8761547,17.1351497 C20.8026243,17.1255027 20.7308551,17.1099358 20.6566643,17.1016043 C20.5809324,17.0932727 20.5043199,17.0869144 20.4277074,17.0798984 C20.116194,17.051615 19.800938,17.0362674 19.4830402,17.0321016 C19.4310846,17.0314439 19.3808902,17.0244278 19.3289346,17.0244278 L0.000132090499,17.0244278 L0.000132090499,24.073139 L14.8418204,24.073139 Z" id="Fill-9" fill="#231F1F"></path>
                </g>
                <rect id="Rectangle-1768-Copy-5" fill="#F5F5F5" x="1" y="1" width="100" height="100" rx="5"></rect>
                <g id="Group-17-Copy-2" fill="url(#linearGradient-18)">
                    <path d="M1,46.1904 C0.447,46.1904 0,45.7424 0,45.1904 L0,35.4054 C0,34.8534 0.447,34.4054 1,34.4054 C1.553,34.4054 2,34.8534 2,35.4054 L2,45.1904 C2,45.7424 1.553,46.1904 1,46.1904" id="Fill-1"></path>
                    <path d="M1,26.6211 C0.447,26.6211 0,26.1731 0,25.6211 L0,15.8361 C0,15.2841 0.447,14.8361 1,14.8361 C1.553,14.8361 2,15.2841 2,15.8361 L2,25.6211 C2,26.1731 1.553,26.6211 1,26.6211" id="Fill-3"></path>
                    <path d="M1,7.0225 C0.447,7.0225 0,6.6045 0,6.0515 L0,5.9935 C0,2.6885 2.688,0.0005 5.993,0.0005 L7.93,0.0005 C8.482,0.0005 8.93,0.4475 8.93,1.0005 C8.93,1.5525 8.482,2.0005 7.93,2.0005 L5.993,2.0005 C3.791,2.0005 2,3.7915 2,5.9935 C2,6.5455 1.553,7.0225 1,7.0225" id="Fill-5"></path>
                    <path d="M47.0684,2 L37.2844,2 C36.7314,2 36.2844,1.552 36.2844,1 C36.2844,0.448 36.7314,0 37.2844,0 L47.0684,0 C47.6214,0 48.0684,0.448 48.0684,1 C48.0684,1.552 47.6214,2 47.0684,2" id="Fill-7"></path>
                    <path d="M27.499,2 L17.715,2 C17.162,2 16.715,1.552 16.715,1 C16.715,0.448 17.162,0 17.715,0 L27.499,0 C28.052,0 28.499,0.448 28.499,1 C28.499,1.552 28.052,2 27.499,2" id="Fill-9"></path>
                    <path d="M100,45.1904 L100,35.4054 C100,34.8534 100.447,34.4054 101,34.4054 C101.553,34.4054 102,34.8534 102,35.4054 L102,45.1904 C102,45.7424 101.553,46.1904 101,46.1904 C100.447,46.1904 100,45.7424 100,45.1904" id="Fill-11"></path>
                    <path d="M100,25.6211 L100,15.8361 C100,15.2841 100.447,14.8361 101,14.8361 C101.553,14.8361 102,15.2841 102,15.8361 L102,25.6211 C102,26.1731 101.553,26.6211 101,26.6211 C100.447,26.6211 100,26.1731 100,25.6211" id="Fill-13"></path>
                    <path d="M100,5.9932 C100,3.7912 98.209,2.0002 96.007,2.0002 L94.07,2.0002 C93.518,2.0002 93.07,1.5522 93.07,1.0002 C93.07,0.4482 93.518,0.0002 94.07,0.0002 L96.007,0.0002 C99.312,0.0002 102,2.6882 102,5.9932 L102,6.0522 C102,6.6042 101.553,7.0222 101,7.0222 C100.447,7.0222 100,6.5452 100,5.9932" id="Fill-15"></path>
                    <path d="M53.9316,1 C53.9316,0.448 54.3786,0 54.9316,0 L64.7156,0 C65.2686,0 65.7156,0.448 65.7156,1 C65.7156,1.552 65.2686,2 64.7156,2 L54.9316,2 C54.3786,2 53.9316,1.552 53.9316,1" id="Fill-17"></path>
                    <path d="M73.501,1 C73.501,0.448 73.948,0 74.501,0 L84.285,0 C84.838,0 85.285,0.448 85.285,1 C85.285,1.552 84.838,2 84.285,2 L74.501,2 C73.948,2 73.501,1.552 73.501,1" id="Fill-19"></path>
                    <path d="M2,56.8096 L2,66.5946 C2,67.1466 1.553,67.5946 1,67.5946 C0.447,67.5946 0,67.1466 0,66.5946 L0,56.8096 C0,56.2576 0.447,55.8096 1,55.8096 C1.553,55.8096 2,56.2576 2,56.8096" id="Fill-21"></path>
                    <path d="M2,76.3789 L2,86.1639 C2,86.7159 1.553,87.1639 1,87.1639 C0.447,87.1639 0,86.7159 0,86.1639 L0,76.3789 C0,75.8269 0.447,75.3789 1,75.3789 C1.553,75.3789 2,75.8269 2,76.3789" id="Fill-23"></path>
                    <path d="M2,96.0068 C2,98.2088 3.791,99.9998 5.993,99.9998 L7.93,99.9998 C8.482,99.9998 8.93,100.4478 8.93,100.9998 C8.93,101.5518 8.482,101.9998 7.93,101.9998 L5.993,101.9998 C2.688,101.9998 0,99.3118 0,96.0068 L0,95.9478 C0,95.3958 0.447,94.9778 1,94.9778 C1.553,94.9778 2,95.4548 2,96.0068" id="Fill-25"></path>
                    <path d="M48.0684,101 C48.0684,101.552 47.6214,102 47.0684,102 L37.2844,102 C36.7314,102 36.2844,101.552 36.2844,101 C36.2844,100.448 36.7314,100 37.2844,100 L47.0684,100 C47.6214,100 48.0684,100.448 48.0684,101" id="Fill-27"></path>
                    <path d="M28.499,101 C28.499,101.552 28.052,102 27.499,102 L17.715,102 C17.162,102 16.715,101.552 16.715,101 C16.715,100.448 17.162,100 17.715,100 L27.499,100 C28.052,100 28.499,100.448 28.499,101" id="Fill-29"></path>
                    <path d="M101,55.8096 C101.553,55.8096 102,56.2576 102,56.8096 L102,66.5946 C102,67.1466 101.553,67.5946 101,67.5946 C100.447,67.5946 100,67.1466 100,66.5946 L100,56.8096 C100,56.2576 100.447,55.8096 101,55.8096" id="Fill-31"></path>
                    <path d="M101,75.3789 C101.553,75.3789 102,75.8269 102,76.3789 L102,86.1639 C102,86.7159 101.553,87.1639 101,87.1639 C100.447,87.1639 100,86.7159 100,86.1639 L100,76.3789 C100,75.8269 100.447,75.3789 101,75.3789" id="Fill-33"></path>
                    <path d="M101,94.9775 C101.553,94.9775 102,95.3955 102,95.9485 L102,96.0065 C102,99.3115 99.312,101.9995 96.007,101.9995 L94.07,101.9995 C93.518,101.9995 93.07,101.5525 93.07,100.9995 C93.07,100.4475 93.518,99.9995 94.07,99.9995 L96.007,99.9995 C98.209,99.9995 100,98.2085 100,96.0065 C100,95.4545 100.447,94.9775 101,94.9775" id="Fill-35"></path>
                    <path d="M54.9316,100 L64.7156,100 C65.2686,100 65.7156,100.448 65.7156,101 C65.7156,101.552 65.2686,102 64.7156,102 L54.9316,102 C54.3786,102 53.9316,101.552 53.9316,101 C53.9316,100.448 54.3786,100 54.9316,100" id="Fill-37"></path>
                    <path d="M74.501,100 L84.285,100 C84.838,100 85.285,100.448 85.285,101 C85.285,101.552 84.838,102 84.285,102 L74.501,102 C73.948,102 73.501,101.552 73.501,101 C73.501,100.448 73.948,100 74.501,100" id="Fill-39"></path>
                </g>
                <ellipse id="Oval-56-Copy-134" fill="#FFFFFF" transform="translate(51.000000, 51.000000) scale(-1, 1) translate(-51.000000, -51.000000) " cx="51" cy="51" rx="35" ry="35"></ellipse>
                <g id="Page-1-Copy-3" transform="translate(38.000000, 31.000000)">
                    <g id="Group-3" transform="translate(0.000000, 0.097567)">
                        <mask id="mask-24" fill="white">
                            <use xlink:href="#path-23"></use>
                        </mask>
                        <g id="Clip-2"></g>
                        <path d="M14.8409398,23.9755283 L0.000132090499,23.9755283 L0.000132090499,0.121640642 L14.8409398,0.121640642 C21.4549312,0.121640642 26.8169248,5.46150695 26.8169248,12.0484749 L26.8169248,12.0484749 C26.8169248,18.635662 21.4549312,23.9755283 14.8409398,23.9755283" id="Fill-1" fill="#06A6DE" mask="url(#mask-24)"></path>
                    </g>
                    <path d="M19.3290227,40.8783155 L0,40.8783155 L0,17.0244278 L19.3290227,17.0244278 C25.9432342,17.0244278 31.3050077,22.3642941 31.3050077,28.951262 L31.3050077,28.951262 C31.3050077,35.5384492 25.9432342,40.8783155 19.3290227,40.8783155" id="Fill-4" fill="#3EBEB0"></path>
                    <g id="Group-8" transform="translate(0.000000, 16.979920)">
                        <mask id="mask-26" fill="white">
                            <use xlink:href="#path-25"></use>
                        </mask>
                        <g id="Clip-7"></g>
                        <path d="M28.41544,4.20467059 C26.2194354,1.65806631 22.9640651,0.0443764706 19.3289346,0.0443764706 L-8.80603329e-05,0.0443764706 L-8.80603329e-05,11.0788578 L17.9219507,11.0788578 C24.2928955,11.0788578 28.7260728,4.56490053 28.41544,4.20467059" id="Fill-6" fill="#017169" opacity="0.496326959" mask="url(#mask-26)"></path>
                    </g>
                    <path d="M14.8418204,24.073139 C19.1299183,24.0727005 22.880628,21.8207701 24.9958371,18.4467112 C24.7098612,18.2932353 24.4159598,18.1526952 24.1165547,18.0222406 C24.0516102,17.9941765 23.9873262,17.9656738 23.9219414,17.9384866 C23.6344244,17.8192139 23.3403029,17.712877 23.0417784,17.6159679 C23.0105169,17.6056631 22.9812369,17.5922888 22.9499755,17.5824225 C22.8995609,17.5664171 22.8480456,17.553262 22.7971908,17.5379144 C22.531909,17.458107 22.2611235,17.3914545 21.9883566,17.3296257 C21.9460877,17.3201979 21.9053598,17.3066043 21.8626505,17.297615 C21.8080531,17.2857754 21.7543363,17.2717433 21.6992986,17.2607807 C21.4291735,17.2068449 21.1526641,17.1706684 20.8761547,17.1351497 C20.8026243,17.1255027 20.7308551,17.1099358 20.6566643,17.1016043 C20.5809324,17.0932727 20.5043199,17.0869144 20.4277074,17.0798984 C20.116194,17.051615 19.800938,17.0362674 19.4830402,17.0321016 C19.4310846,17.0314439 19.3808902,17.0244278 19.3289346,17.0244278 L0.000132090499,17.0244278 L0.000132090499,24.073139 L14.8418204,24.073139 Z" id="Fill-9" fill="#231F1F"></path>
                </g>
            </g>
        </g>
    </g>
</svg>